{"title":"Dark.Matters.Twisted.But.True.S01E02.HDTV.XviD-tNe.avi","uid":6659938,"size":366606336,"categoryP":"video","categoryS":"tv_shows","magnet":"?xt=urn:btih:10b7c8aea20183d1fde23c4d46cfd080fd7ce4b3&amp;dn=Dark.Matters.Twisted.But.True.S01E02.HDTV.XviD-tNe.avi&amp;tr=udp%3A%2F%2Ftracker.openbittorrent.com%3A80&amp;tr=udp%3A%2F%2Fopen.demonii.com%3A1337&amp;tr=udp%3A%2F%2Ftracker.coppersurfer.tk%3A6969&amp;tr=udp%3A%2F%2Fexodus.desync.com%3A6969","seeders":1,"leechers":1,"uploader":"trialNerror","files":1,"time":1315479574,"description":"Dark Matters: Twisted But True - I Have Einstein's Brain, Unidentified Flying Nazis, Killer Thoughts\n \nIn 1965, Pennsylvania citizens wondered if the fireball they saw in the sky was a UFO; the man in charge of Einstein's autopsy stole his brain in the hopes of understanding the physical aspect of intelligence; the Cold War led to a psychic arms race.\n \nFormat                           : AVI\nFormat/Info                      : Audio Video Interleave\nFile size                        : 350 MiB\nDuration                         : 43mn 5s\nOverall bit rate                 : 1 134 Kbps\nWriting application              : VirtualDubMod 1.5.10.2 (build 2542/release)\nWriting library                  : VirtualDubMod build 2542/release\n \nVideo\nID                               : 0\nFormat                           : MPEG-4 Visual\nFormat profile                   : Advanced Simple@L5\nFormat settings, BVOP            : 2\nFormat settings, QPel            : No\nFormat settings, GMC             : No warppoints\nFormat settings, Matrix          : Default (H.263)\nCodec ID                         : XVID\nCodec ID/Hint                    : XviD\nDuration                         : 43mn 5s\nBit rate                         : 989 Kbps\nWidth                            : 624 pixels\nHeight                           : 352 pixels\nDisplay aspect ratio             : 16:9\nFrame rate                       : 29.970 fps\nColor space                      : YUV\nChroma subsampling               : 4:2:0\nBit depth                        : 8 bits\nScan type                        : Progressive\nCompression mode                 : Lossy\nBits/(Pixel*Frame)               : 0.150\nStream size                      : 305 MiB (87%)\nWriting library                  : XviD 64\n \nAudio\nID                               : 1\nFormat                           : MPEG Audio\nFormat version                   : Version 1\nFormat profile                   : Layer 3\nMode                             : Joint stereo\nMode extension                   : MS Stereo\nCodec ID                         : 55\nCodec ID/Hint                    : MP3\nDuration                         : 43mn 5s\nBit rate mode                    : Variable\nBit rate                         : 131 Kbps\nChannel(s)                       : 2 channels\nSampling rate                    : 48.0 KHz\nCompression mode                 : Lossy\nStream size                      : 40.5 MiB (12%)\nAlignment                        : Aligned on interleaves\nInterleave, duration             : 24 ms (0.72 video frame)\nInterleave, preload duration     : 485 ms","torrent":{"xt":"urn:btih:10b7c8aea20183d1fde23c4d46cfd080fd7ce4b3","amp;dn":"Dark.Matters.Twisted.But.True.S01E02.HDTV.XviD-tNe.avi","amp;tr":["udp%3A%2F%2Ftracker.openbittorrent.com%3A80","udp%3A%2F%2Fopen.demonii.com%3A1337","udp%3A%2F%2Ftracker.coppersurfer.tk%3A6969","udp%3A%2F%2Fexodus.desync.com%3A6969"],"infoHash":"10b7c8aea20183d1fde23c4d46cfd080fd7ce4b3","infoHashBuffer":{"type":"Buffer","data":[16,183,200,174,162,1,131,209,253,226,60,77,70,207,208,128,253,124,228,179]},"announce":[],"urlList":[]}}